<mxfile host="app.diagrams.net" modified="2023-09-28T13:53:21.548Z" agent="Mozilla/5.0 (Windows NT 10.0; Win64; x64) AppleWebKit/537.36 (KHTML, like Gecko) Chrome/117.0.0.0 Safari/537.36" etag="ooXUk-2hXMBbmE_xBqD1" version="21.8.2" type="device">
  <diagram name="Page-1" id="R3eg-mdfZnPCtV598-A5">
    <mxGraphModel dx="2668" dy="1988" grid="1" gridSize="10" guides="1" tooltips="1" connect="1" arrows="1" fold="1" page="1" pageScale="1" pageWidth="850" pageHeight="1100" math="0" shadow="0">
      <root>
        <mxCell id="0" />
        <mxCell id="1" parent="0" />
        <mxCell id="FHpTiLL-hfbK0YaAA4z2-10" style="edgeStyle=orthogonalEdgeStyle;rounded=0;orthogonalLoop=1;jettySize=auto;html=1;entryX=0.5;entryY=0;entryDx=0;entryDy=0;" parent="1" source="FHpTiLL-hfbK0YaAA4z2-26" target="FHpTiLL-hfbK0YaAA4z2-2" edge="1">
          <mxGeometry relative="1" as="geometry" />
        </mxCell>
        <mxCell id="FHpTiLL-hfbK0YaAA4z2-11" style="edgeStyle=orthogonalEdgeStyle;rounded=0;orthogonalLoop=1;jettySize=auto;html=1;entryX=0.5;entryY=0;entryDx=0;entryDy=0;" parent="1" source="FHpTiLL-hfbK0YaAA4z2-28" target="FHpTiLL-hfbK0YaAA4z2-3" edge="1">
          <mxGeometry relative="1" as="geometry" />
        </mxCell>
        <mxCell id="FHpTiLL-hfbK0YaAA4z2-1" value="SG DC" style="rounded=1;whiteSpace=wrap;html=1;fillColor=#f8cecc;strokeColor=#b85450;" parent="1" vertex="1">
          <mxGeometry x="305" y="-80" width="157" height="242" as="geometry" />
        </mxCell>
        <mxCell id="FHpTiLL-hfbK0YaAA4z2-2" value="DEV" style="rounded=1;whiteSpace=wrap;html=1;fillColor=#dae8fc;strokeColor=#6c8ebf;" parent="1" vertex="1">
          <mxGeometry x="46" y="141" width="164" height="242" as="geometry" />
        </mxCell>
        <mxCell id="Bct9v7tW5X9Kv2HivTZW-4" style="edgeStyle=orthogonalEdgeStyle;rounded=0;orthogonalLoop=1;jettySize=auto;html=1;entryX=0.5;entryY=0;entryDx=0;entryDy=0;" parent="1" source="FHpTiLL-hfbK0YaAA4z2-3" target="Bct9v7tW5X9Kv2HivTZW-1" edge="1">
          <mxGeometry relative="1" as="geometry" />
        </mxCell>
        <mxCell id="FHpTiLL-hfbK0YaAA4z2-3" value="QA" style="rounded=1;whiteSpace=wrap;html=1;fillColor=#dae8fc;strokeColor=#6c8ebf;" parent="1" vertex="1">
          <mxGeometry x="580" y="141" width="164" height="242" as="geometry" />
        </mxCell>
        <mxCell id="FHpTiLL-hfbK0YaAA4z2-14" value="" style="edgeStyle=orthogonalEdgeStyle;rounded=0;orthogonalLoop=1;jettySize=auto;html=1;" parent="1" source="FHpTiLL-hfbK0YaAA4z2-12" target="FHpTiLL-hfbK0YaAA4z2-13" edge="1">
          <mxGeometry relative="1" as="geometry" />
        </mxCell>
        <mxCell id="FHpTiLL-hfbK0YaAA4z2-12" value="Actor" style="shape=umlActor;verticalLabelPosition=bottom;verticalAlign=top;html=1;outlineConnect=0;" parent="1" vertex="1">
          <mxGeometry y="-350" width="30" height="60" as="geometry" />
        </mxCell>
        <mxCell id="FHpTiLL-hfbK0YaAA4z2-16" style="edgeStyle=orthogonalEdgeStyle;rounded=0;orthogonalLoop=1;jettySize=auto;html=1;exitX=1;exitY=0.5;exitDx=0;exitDy=0;" parent="1" source="FHpTiLL-hfbK0YaAA4z2-13" target="FHpTiLL-hfbK0YaAA4z2-15" edge="1">
          <mxGeometry relative="1" as="geometry" />
        </mxCell>
        <mxCell id="FHpTiLL-hfbK0YaAA4z2-13" value="IGW" style="rounded=1;whiteSpace=wrap;html=1;fillColor=#dae8fc;strokeColor=#6c8ebf;" parent="1" vertex="1">
          <mxGeometry x="60" y="-350" width="120" height="60" as="geometry" />
        </mxCell>
        <mxCell id="FHpTiLL-hfbK0YaAA4z2-18" style="edgeStyle=orthogonalEdgeStyle;rounded=0;orthogonalLoop=1;jettySize=auto;html=1;" parent="1" source="FHpTiLL-hfbK0YaAA4z2-15" edge="1">
          <mxGeometry relative="1" as="geometry">
            <mxPoint x="380" y="-260" as="targetPoint" />
          </mxGeometry>
        </mxCell>
        <mxCell id="FHpTiLL-hfbK0YaAA4z2-15" value="VPN" style="rounded=1;whiteSpace=wrap;html=1;fillColor=#dae8fc;strokeColor=#6c8ebf;" parent="1" vertex="1">
          <mxGeometry x="210" y="-350" width="120" height="60" as="geometry" />
        </mxCell>
        <mxCell id="FHpTiLL-hfbK0YaAA4z2-19" style="edgeStyle=orthogonalEdgeStyle;rounded=0;orthogonalLoop=1;jettySize=auto;html=1;" parent="1" source="FHpTiLL-hfbK0YaAA4z2-17" edge="1">
          <mxGeometry relative="1" as="geometry">
            <mxPoint x="380" y="-80" as="targetPoint" />
          </mxGeometry>
        </mxCell>
        <mxCell id="FHpTiLL-hfbK0YaAA4z2-17" value="TGW" style="rounded=1;whiteSpace=wrap;html=1;fillColor=#d80073;fontColor=#ffffff;strokeColor=#A50040;" parent="1" vertex="1">
          <mxGeometry x="320" y="-260" width="120" height="60" as="geometry" />
        </mxCell>
        <mxCell id="FHpTiLL-hfbK0YaAA4z2-20" value="rt" style="ellipse;whiteSpace=wrap;html=1;" parent="1" vertex="1">
          <mxGeometry x="265" y="34" width="40" height="30" as="geometry" />
        </mxCell>
        <mxCell id="FHpTiLL-hfbK0YaAA4z2-22" value="RT" style="ellipse;whiteSpace=wrap;html=1;fillColor=#0050ef;fontColor=#ffffff;strokeColor=#001DBC;" parent="1" vertex="1">
          <mxGeometry x="265" y="34" width="40" height="30" as="geometry" />
        </mxCell>
        <mxCell id="FHpTiLL-hfbK0YaAA4z2-27" value="" style="edgeStyle=orthogonalEdgeStyle;rounded=0;orthogonalLoop=1;jettySize=auto;html=1;entryX=0.5;entryY=0;entryDx=0;entryDy=0;" parent="1" source="FHpTiLL-hfbK0YaAA4z2-20" target="FHpTiLL-hfbK0YaAA4z2-26" edge="1">
          <mxGeometry relative="1" as="geometry">
            <mxPoint x="265" y="49" as="sourcePoint" />
            <mxPoint x="128" y="141" as="targetPoint" />
          </mxGeometry>
        </mxCell>
        <mxCell id="FHpTiLL-hfbK0YaAA4z2-26" value="RT" style="ellipse;whiteSpace=wrap;html=1;fillColor=#0050ef;fontColor=#ffffff;strokeColor=#001DBC;" parent="1" vertex="1">
          <mxGeometry x="108" y="111" width="40" height="30" as="geometry" />
        </mxCell>
        <mxCell id="FHpTiLL-hfbK0YaAA4z2-29" value="" style="edgeStyle=orthogonalEdgeStyle;rounded=0;orthogonalLoop=1;jettySize=auto;html=1;entryX=0.5;entryY=0;entryDx=0;entryDy=0;" parent="1" source="FHpTiLL-hfbK0YaAA4z2-1" target="FHpTiLL-hfbK0YaAA4z2-28" edge="1">
          <mxGeometry relative="1" as="geometry">
            <mxPoint x="462" y="49" as="sourcePoint" />
            <mxPoint x="662" y="138" as="targetPoint" />
          </mxGeometry>
        </mxCell>
        <mxCell id="FHpTiLL-hfbK0YaAA4z2-28" value="RT" style="ellipse;whiteSpace=wrap;html=1;fillColor=#0050ef;fontColor=#ffffff;strokeColor=#001DBC;" parent="1" vertex="1">
          <mxGeometry x="642" y="108" width="40" height="30" as="geometry" />
        </mxCell>
        <mxCell id="FHpTiLL-hfbK0YaAA4z2-30" value="10.0.0.0/26" style="whiteSpace=wrap;html=1;fillColor=#dae8fc;strokeColor=#6c8ebf;" parent="1" vertex="1">
          <mxGeometry y="100" width="100" height="20" as="geometry" />
        </mxCell>
        <mxCell id="FHpTiLL-hfbK0YaAA4z2-31" value="192.168.0.0/16" style="whiteSpace=wrap;html=1;fillColor=#dae8fc;strokeColor=#6c8ebf;" parent="1" vertex="1">
          <mxGeometry x="390" y="-110" width="80" height="20" as="geometry" />
        </mxCell>
        <mxCell id="FHpTiLL-hfbK0YaAA4z2-32" value="172.16.0.0/16" style="whiteSpace=wrap;html=1;fillColor=#dae8fc;strokeColor=#6c8ebf;" parent="1" vertex="1">
          <mxGeometry x="690" y="88" width="120" height="20" as="geometry" />
        </mxCell>
        <mxCell id="FHpTiLL-hfbK0YaAA4z2-33" value="subnet1" style="rounded=0;whiteSpace=wrap;html=1;fillColor=#d80073;fontColor=#ffffff;strokeColor=#A50040;" parent="1" vertex="1">
          <mxGeometry x="323.5" y="-40" width="120" height="20" as="geometry" />
        </mxCell>
        <mxCell id="FHpTiLL-hfbK0YaAA4z2-34" value="subnet2" style="rounded=0;whiteSpace=wrap;html=1;fillColor=#d80073;fontColor=#ffffff;strokeColor=#A50040;" parent="1" vertex="1">
          <mxGeometry x="323.5" y="80" width="120" height="20" as="geometry" />
        </mxCell>
        <mxCell id="FHpTiLL-hfbK0YaAA4z2-37" value="subnet2" style="rounded=0;whiteSpace=wrap;html=1;fillColor=#d80073;fontColor=#ffffff;strokeColor=#A50040;" parent="1" vertex="1">
          <mxGeometry x="68" y="310" width="120" height="20" as="geometry" />
        </mxCell>
        <mxCell id="FHpTiLL-hfbK0YaAA4z2-38" value="subnet1" style="rounded=0;whiteSpace=wrap;html=1;fillColor=#d80073;fontColor=#ffffff;strokeColor=#A50040;" parent="1" vertex="1">
          <mxGeometry x="68" y="190" width="120" height="20" as="geometry" />
        </mxCell>
        <mxCell id="FHpTiLL-hfbK0YaAA4z2-39" value="subnet1" style="rounded=0;whiteSpace=wrap;html=1;fillColor=#d80073;fontColor=#ffffff;strokeColor=#A50040;" parent="1" vertex="1">
          <mxGeometry x="602" y="180" width="120" height="20" as="geometry" />
        </mxCell>
        <mxCell id="FHpTiLL-hfbK0YaAA4z2-40" value="subnet2" style="rounded=0;whiteSpace=wrap;html=1;fillColor=#d80073;fontColor=#ffffff;strokeColor=#A50040;" parent="1" vertex="1">
          <mxGeometry x="602" y="300" width="120" height="20" as="geometry" />
        </mxCell>
        <mxCell id="FHpTiLL-hfbK0YaAA4z2-41" value="singapore" style="whiteSpace=wrap;html=1;fillColor=#f0a30a;fontColor=#000000;strokeColor=#BD7000;" parent="1" vertex="1">
          <mxGeometry x="170" y="100" width="120" height="20" as="geometry" />
        </mxCell>
        <mxCell id="oPE7nMQUeZW3yc57D7jl-2" style="edgeStyle=orthogonalEdgeStyle;rounded=0;orthogonalLoop=1;jettySize=auto;html=1;entryX=0.5;entryY=0;entryDx=0;entryDy=0;" parent="1" source="oPE7nMQUeZW3yc57D7jl-3" target="oPE7nMQUeZW3yc57D7jl-1" edge="1">
          <mxGeometry relative="1" as="geometry" />
        </mxCell>
        <mxCell id="oPE7nMQUeZW3yc57D7jl-5" style="edgeStyle=orthogonalEdgeStyle;rounded=0;orthogonalLoop=1;jettySize=auto;html=1;entryX=0;entryY=0.5;entryDx=0;entryDy=0;" parent="1" source="FHpTiLL-hfbK0YaAA4z2-42" target="oPE7nMQUeZW3yc57D7jl-3" edge="1">
          <mxGeometry relative="1" as="geometry" />
        </mxCell>
        <mxCell id="FHpTiLL-hfbK0YaAA4z2-42" value="PROD" style="rounded=1;whiteSpace=wrap;html=1;fillColor=#fa6800;strokeColor=#C73500;fontColor=#000000;" parent="1" vertex="1">
          <mxGeometry x="323.5" y="842" width="150" height="190" as="geometry" />
        </mxCell>
        <mxCell id="Bct9v7tW5X9Kv2HivTZW-3" style="edgeStyle=orthogonalEdgeStyle;rounded=0;orthogonalLoop=1;jettySize=auto;html=1;entryX=0.5;entryY=0;entryDx=0;entryDy=0;" parent="1" source="Bct9v7tW5X9Kv2HivTZW-1" target="Bct9v7tW5X9Kv2HivTZW-2" edge="1">
          <mxGeometry relative="1" as="geometry" />
        </mxCell>
        <mxCell id="Bct9v7tW5X9Kv2HivTZW-1" value="PCX" style="ellipse;whiteSpace=wrap;html=1;fillColor=#b0e3e6;strokeColor=#0e8088;" parent="1" vertex="1">
          <mxGeometry x="370" y="290" width="70" height="40" as="geometry" />
        </mxCell>
        <mxCell id="Bct9v7tW5X9Kv2HivTZW-2" value="RT" style="ellipse;whiteSpace=wrap;html=1;fillColor=#0050ef;fontColor=#ffffff;strokeColor=#001DBC;" parent="1" vertex="1">
          <mxGeometry x="385" y="822" width="40" height="30" as="geometry" />
        </mxCell>
        <mxCell id="Bct9v7tW5X9Kv2HivTZW-5" value="n.california" style="whiteSpace=wrap;html=1;fillColor=#60a917;fontColor=#ffffff;strokeColor=#2D7600;" parent="1" vertex="1">
          <mxGeometry x="240" y="802" width="120" height="20" as="geometry" />
        </mxCell>
        <mxCell id="Bct9v7tW5X9Kv2HivTZW-6" value="subhet1" style="rounded=0;whiteSpace=wrap;html=1;fillColor=#d80073;fontColor=#ffffff;strokeColor=#A50040;" parent="1" vertex="1">
          <mxGeometry x="340" y="872" width="120" height="20" as="geometry" />
        </mxCell>
        <mxCell id="Bct9v7tW5X9Kv2HivTZW-7" value="subnet2" style="rounded=0;whiteSpace=wrap;html=1;fillColor=#d80073;fontColor=#ffffff;strokeColor=#A50040;" parent="1" vertex="1">
          <mxGeometry x="345" y="982" width="120" height="20" as="geometry" />
        </mxCell>
        <mxCell id="oPE7nMQUeZW3yc57D7jl-33" style="edgeStyle=orthogonalEdgeStyle;rounded=0;orthogonalLoop=1;jettySize=auto;html=1;entryX=0.5;entryY=0;entryDx=0;entryDy=0;entryPerimeter=0;" parent="1" source="Bct9v7tW5X9Kv2HivTZW-8" target="oPE7nMQUeZW3yc57D7jl-26" edge="1">
          <mxGeometry relative="1" as="geometry" />
        </mxCell>
        <mxCell id="Bct9v7tW5X9Kv2HivTZW-8" value="IGW" style="ellipse;whiteSpace=wrap;html=1;fillColor=#cce5ff;strokeColor=#36393d;" parent="1" vertex="1">
          <mxGeometry y="570" width="60" height="40" as="geometry" />
        </mxCell>
        <mxCell id="LSowH349cZ2_342ZWZpB-2" value="" style="edgeStyle=orthogonalEdgeStyle;rounded=0;orthogonalLoop=1;jettySize=auto;html=1;" parent="1" source="LSowH349cZ2_342ZWZpB-1" target="FHpTiLL-hfbK0YaAA4z2-33" edge="1">
          <mxGeometry relative="1" as="geometry" />
        </mxCell>
        <mxCell id="LSowH349cZ2_342ZWZpB-3" style="edgeStyle=orthogonalEdgeStyle;rounded=0;orthogonalLoop=1;jettySize=auto;html=1;entryX=1;entryY=0.75;entryDx=0;entryDy=0;" parent="1" source="LSowH349cZ2_342ZWZpB-1" target="FHpTiLL-hfbK0YaAA4z2-34" edge="1">
          <mxGeometry relative="1" as="geometry">
            <Array as="points">
              <mxPoint x="384" y="50" />
              <mxPoint x="460" y="50" />
              <mxPoint x="460" y="95" />
            </Array>
          </mxGeometry>
        </mxCell>
        <mxCell id="LSowH349cZ2_342ZWZpB-1" value="NACL" style="ellipse;whiteSpace=wrap;html=1;fillColor=#0050ef;fontColor=#ffffff;strokeColor=#001DBC;" parent="1" vertex="1">
          <mxGeometry x="348.5" width="70" height="20" as="geometry" />
        </mxCell>
        <mxCell id="LSowH349cZ2_342ZWZpB-4" value="SG" style="ellipse;whiteSpace=wrap;html=1;fillColor=#0050ef;fontColor=#ffffff;strokeColor=#001DBC;" parent="1" vertex="1">
          <mxGeometry x="280" y="-70" width="40" height="40" as="geometry" />
        </mxCell>
        <mxCell id="Dr1yl8WTk1HrlIP7WIu5-21" style="edgeStyle=orthogonalEdgeStyle;rounded=0;orthogonalLoop=1;jettySize=auto;html=1;exitX=0.5;exitY=1;exitDx=0;exitDy=0;entryX=0.5;entryY=0;entryDx=0;entryDy=0;" parent="1" source="Dr1yl8WTk1HrlIP7WIu5-5" target="Dr1yl8WTk1HrlIP7WIu5-9" edge="1">
          <mxGeometry relative="1" as="geometry" />
        </mxCell>
        <mxCell id="Dr1yl8WTk1HrlIP7WIu5-5" value="lb" style="rounded=1;whiteSpace=wrap;html=1;fillColor=#dae8fc;strokeColor=#6c8ebf;" parent="1" vertex="1">
          <mxGeometry x="-55" y="852" width="120" height="30" as="geometry" />
        </mxCell>
        <mxCell id="Dr1yl8WTk1HrlIP7WIu5-6" value="lb" style="rounded=1;whiteSpace=wrap;html=1;fillColor=#dae8fc;strokeColor=#6c8ebf;" parent="1" vertex="1">
          <mxGeometry x="-55" y="802" width="120" height="30" as="geometry" />
        </mxCell>
        <mxCell id="Dr1yl8WTk1HrlIP7WIu5-27" style="edgeStyle=orthogonalEdgeStyle;rounded=0;orthogonalLoop=1;jettySize=auto;html=1;" parent="1" source="Dr1yl8WTk1HrlIP7WIu5-9" edge="1">
          <mxGeometry relative="1" as="geometry">
            <mxPoint x="-315" y="970" as="targetPoint" />
          </mxGeometry>
        </mxCell>
        <mxCell id="Dr1yl8WTk1HrlIP7WIu5-9" value="web/app" style="rounded=1;whiteSpace=wrap;html=1;fillColor=#f8cecc;strokeColor=#b85450;" parent="1" vertex="1">
          <mxGeometry x="-55" y="912" width="120" height="30" as="geometry" />
        </mxCell>
        <mxCell id="Dr1yl8WTk1HrlIP7WIu5-10" value="web/app" style="rounded=1;whiteSpace=wrap;html=1;fillColor=#f8cecc;strokeColor=#b85450;" parent="1" vertex="1">
          <mxGeometry x="-55" y="962" width="120" height="30" as="geometry" />
        </mxCell>
        <mxCell id="oPE7nMQUeZW3yc57D7jl-37" style="edgeStyle=orthogonalEdgeStyle;rounded=0;orthogonalLoop=1;jettySize=auto;html=1;" parent="1" source="Dr1yl8WTk1HrlIP7WIu5-11" target="oPE7nMQUeZW3yc57D7jl-11" edge="1">
          <mxGeometry relative="1" as="geometry" />
        </mxCell>
        <mxCell id="Dr1yl8WTk1HrlIP7WIu5-11" value="db" style="rounded=1;whiteSpace=wrap;html=1;fillColor=#f8cecc;strokeColor=#b85450;" parent="1" vertex="1">
          <mxGeometry x="-55" y="1012" width="120" height="30" as="geometry" />
        </mxCell>
        <mxCell id="oPE7nMQUeZW3yc57D7jl-38" style="edgeStyle=orthogonalEdgeStyle;rounded=0;orthogonalLoop=1;jettySize=auto;html=1;exitX=1;exitY=0.5;exitDx=0;exitDy=0;" parent="1" source="Dr1yl8WTk1HrlIP7WIu5-12" target="oPE7nMQUeZW3yc57D7jl-11" edge="1">
          <mxGeometry relative="1" as="geometry" />
        </mxCell>
        <mxCell id="Dr1yl8WTk1HrlIP7WIu5-12" value="db" style="rounded=1;whiteSpace=wrap;html=1;fillColor=#f8cecc;strokeColor=#b85450;" parent="1" vertex="1">
          <mxGeometry x="-55" y="1075" width="120" height="30" as="geometry" />
        </mxCell>
        <mxCell id="Dr1yl8WTk1HrlIP7WIu5-15" style="edgeStyle=orthogonalEdgeStyle;rounded=0;orthogonalLoop=1;jettySize=auto;html=1;entryX=0;entryY=0.5;entryDx=0;entryDy=0;" parent="1" source="Dr1yl8WTk1HrlIP7WIu5-13" target="Dr1yl8WTk1HrlIP7WIu5-6" edge="1">
          <mxGeometry relative="1" as="geometry">
            <Array as="points">
              <mxPoint x="-95" y="842" />
              <mxPoint x="-95" y="817" />
            </Array>
          </mxGeometry>
        </mxCell>
        <mxCell id="Dr1yl8WTk1HrlIP7WIu5-16" style="edgeStyle=orthogonalEdgeStyle;rounded=0;orthogonalLoop=1;jettySize=auto;html=1;entryX=0;entryY=0.5;entryDx=0;entryDy=0;" parent="1" source="Dr1yl8WTk1HrlIP7WIu5-13" target="Dr1yl8WTk1HrlIP7WIu5-5" edge="1">
          <mxGeometry relative="1" as="geometry">
            <Array as="points">
              <mxPoint x="-95" y="842" />
              <mxPoint x="-95" y="867" />
            </Array>
          </mxGeometry>
        </mxCell>
        <mxCell id="Dr1yl8WTk1HrlIP7WIu5-13" value="public rt" style="ellipse;whiteSpace=wrap;html=1;fillColor=#f8cecc;strokeColor=#b85450;" parent="1" vertex="1">
          <mxGeometry x="-305" y="815" width="80" height="60" as="geometry" />
        </mxCell>
        <mxCell id="Dr1yl8WTk1HrlIP7WIu5-23" value="" style="edgeStyle=orthogonalEdgeStyle;rounded=0;orthogonalLoop=1;jettySize=auto;html=1;" parent="1" source="Dr1yl8WTk1HrlIP7WIu5-22" target="Dr1yl8WTk1HrlIP7WIu5-11" edge="1">
          <mxGeometry relative="1" as="geometry" />
        </mxCell>
        <mxCell id="Dr1yl8WTk1HrlIP7WIu5-24" style="edgeStyle=orthogonalEdgeStyle;rounded=0;orthogonalLoop=1;jettySize=auto;html=1;entryX=0;entryY=0.75;entryDx=0;entryDy=0;" parent="1" source="Dr1yl8WTk1HrlIP7WIu5-22" target="Dr1yl8WTk1HrlIP7WIu5-9" edge="1">
          <mxGeometry relative="1" as="geometry" />
        </mxCell>
        <mxCell id="Dr1yl8WTk1HrlIP7WIu5-25" style="edgeStyle=orthogonalEdgeStyle;rounded=0;orthogonalLoop=1;jettySize=auto;html=1;entryX=0;entryY=0.5;entryDx=0;entryDy=0;" parent="1" source="Dr1yl8WTk1HrlIP7WIu5-22" target="Dr1yl8WTk1HrlIP7WIu5-10" edge="1">
          <mxGeometry relative="1" as="geometry" />
        </mxCell>
        <mxCell id="Dr1yl8WTk1HrlIP7WIu5-26" style="edgeStyle=orthogonalEdgeStyle;rounded=0;orthogonalLoop=1;jettySize=auto;html=1;entryX=0;entryY=0.5;entryDx=0;entryDy=0;" parent="1" source="Dr1yl8WTk1HrlIP7WIu5-22" target="Dr1yl8WTk1HrlIP7WIu5-12" edge="1">
          <mxGeometry relative="1" as="geometry" />
        </mxCell>
        <mxCell id="Dr1yl8WTk1HrlIP7WIu5-22" value="private rt" style="ellipse;whiteSpace=wrap;html=1;fillColor=#f8cecc;strokeColor=#b85450;" parent="1" vertex="1">
          <mxGeometry x="-235" y="972" width="70" height="60" as="geometry" />
        </mxCell>
        <mxCell id="Dr1yl8WTk1HrlIP7WIu5-31" style="edgeStyle=orthogonalEdgeStyle;rounded=0;orthogonalLoop=1;jettySize=auto;html=1;entryX=0;entryY=0.5;entryDx=0;entryDy=0;" parent="1" source="Dr1yl8WTk1HrlIP7WIu5-30" target="Dr1yl8WTk1HrlIP7WIu5-22" edge="1">
          <mxGeometry relative="1" as="geometry" />
        </mxCell>
        <mxCell id="Dr1yl8WTk1HrlIP7WIu5-30" value="nat" style="rounded=1;whiteSpace=wrap;html=1;fillColor=#60a917;fontColor=#ffffff;strokeColor=#2D7600;" parent="1" vertex="1">
          <mxGeometry x="-375" y="972" width="120" height="60" as="geometry" />
        </mxCell>
        <mxCell id="Dr1yl8WTk1HrlIP7WIu5-32" value="NIC&amp;nbsp; public ip" style="text;html=1;align=center;verticalAlign=middle;resizable=0;points=[];autosize=1;strokeColor=#006EAF;fillColor=#1ba1e2;fontColor=#ffffff;" parent="1" vertex="1">
          <mxGeometry x="-425" y="932" width="90" height="30" as="geometry" />
        </mxCell>
        <mxCell id="Dr1yl8WTk1HrlIP7WIu5-33" value="NIC private ip" style="text;html=1;align=center;verticalAlign=middle;resizable=0;points=[];autosize=1;strokeColor=#006EAF;fillColor=#1ba1e2;fontColor=#ffffff;" parent="1" vertex="1">
          <mxGeometry x="-430" y="1042" width="100" height="30" as="geometry" />
        </mxCell>
        <mxCell id="Dr1yl8WTk1HrlIP7WIu5-34" value="process" style="rounded=1;whiteSpace=wrap;html=1;fillColor=#60a917;fontColor=#ffffff;strokeColor=#2D7600;" parent="1" vertex="1">
          <mxGeometry x="-225" y="1130" width="120" height="60" as="geometry" />
        </mxCell>
        <mxCell id="Dr1yl8WTk1HrlIP7WIu5-35" value="in-progress" style="rounded=1;whiteSpace=wrap;html=1;fillColor=#60a917;fontColor=#ffffff;strokeColor=#2D7600;" parent="1" vertex="1">
          <mxGeometry x="-215" y="1230" width="120" height="60" as="geometry" />
        </mxCell>
        <mxCell id="Dr1yl8WTk1HrlIP7WIu5-36" value="communicate to stack and planned" style="rounded=1;whiteSpace=wrap;html=1;fillColor=#60a917;fontColor=#ffffff;strokeColor=#2D7600;" parent="1" vertex="1">
          <mxGeometry x="-375" y="1230" width="120" height="60" as="geometry" />
        </mxCell>
        <mxCell id="Dr1yl8WTk1HrlIP7WIu5-39" value="completed upgrade" style="rounded=1;whiteSpace=wrap;html=1;fillColor=#60a917;fontColor=#ffffff;strokeColor=#2D7600;" parent="1" vertex="1">
          <mxGeometry x="-56.5" y="1230" width="120" height="60" as="geometry" />
        </mxCell>
        <mxCell id="Dr1yl8WTk1HrlIP7WIu5-40" value="3 -days rollback" style="text;html=1;align=center;verticalAlign=middle;resizable=0;points=[];autosize=1;strokeColor=none;fillColor=none;" parent="1" vertex="1">
          <mxGeometry x="-70" y="1138" width="110" height="30" as="geometry" />
        </mxCell>
        <mxCell id="Dr1yl8WTk1HrlIP7WIu5-41" value="SRE - team" style="text;html=1;align=center;verticalAlign=middle;resizable=0;points=[];autosize=1;strokeColor=#A50040;fillColor=#d80073;fontColor=#ffffff;" parent="1" vertex="1">
          <mxGeometry x="-300" y="750" width="90" height="30" as="geometry" />
        </mxCell>
        <mxCell id="Dr1yl8WTk1HrlIP7WIu5-43" value="10.0.0.0/16" style="text;html=1;align=center;verticalAlign=middle;resizable=0;points=[];autosize=1;strokeColor=#6c8ebf;fillColor=#dae8fc;" parent="1" vertex="1">
          <mxGeometry x="430" y="802" width="80" height="30" as="geometry" />
        </mxCell>
        <mxCell id="oPE7nMQUeZW3yc57D7jl-1" value="DR" style="rounded=1;whiteSpace=wrap;html=1;fillColor=#f0a30a;fontColor=#000000;strokeColor=#BD7000;" parent="1" vertex="1">
          <mxGeometry x="900" y="850" width="160" height="220" as="geometry" />
        </mxCell>
        <mxCell id="oPE7nMQUeZW3yc57D7jl-3" value="pcx" style="ellipse;whiteSpace=wrap;html=1;fillColor=#cce5ff;strokeColor=#36393d;" parent="1" vertex="1">
          <mxGeometry x="592" y="560" width="90" height="50" as="geometry" />
        </mxCell>
        <mxCell id="oPE7nMQUeZW3yc57D7jl-24" style="edgeStyle=orthogonalEdgeStyle;rounded=0;orthogonalLoop=1;jettySize=auto;html=1;entryX=0;entryY=0.5;entryDx=0;entryDy=0;entryPerimeter=0;" parent="1" source="oPE7nMQUeZW3yc57D7jl-11" target="oPE7nMQUeZW3yc57D7jl-14" edge="1">
          <mxGeometry relative="1" as="geometry">
            <Array as="points">
              <mxPoint x="791" y="1180" />
            </Array>
          </mxGeometry>
        </mxCell>
        <mxCell id="oPE7nMQUeZW3yc57D7jl-11" value="S3" style="sketch=0;points=[[0,0,0],[0.25,0,0],[0.5,0,0],[0.75,0,0],[1,0,0],[0,1,0],[0.25,1,0],[0.5,1,0],[0.75,1,0],[1,1,0],[0,0.25,0],[0,0.5,0],[0,0.75,0],[1,0.25,0],[1,0.5,0],[1,0.75,0]];outlineConnect=0;fontColor=#232F3E;gradientColor=#60A337;gradientDirection=north;fillColor=#277116;strokeColor=#ffffff;dashed=0;verticalLabelPosition=bottom;verticalAlign=top;align=center;html=1;fontSize=12;fontStyle=0;aspect=fixed;shape=mxgraph.aws4.resourceIcon;resIcon=mxgraph.aws4.s3;" parent="1" vertex="1">
          <mxGeometry x="137" y="1138" width="78" height="78" as="geometry" />
        </mxCell>
        <mxCell id="oPE7nMQUeZW3yc57D7jl-14" value="S3" style="sketch=0;points=[[0,0,0],[0.25,0,0],[0.5,0,0],[0.75,0,0],[1,0,0],[0,1,0],[0.25,1,0],[0.5,1,0],[0.75,1,0],[1,1,0],[0,0.25,0],[0,0.5,0],[0,0.75,0],[1,0.25,0],[1,0.5,0],[1,0.75,0]];outlineConnect=0;fontColor=#232F3E;gradientColor=#60A337;gradientDirection=north;fillColor=#277116;strokeColor=#ffffff;dashed=0;verticalLabelPosition=bottom;verticalAlign=top;align=center;html=1;fontSize=12;fontStyle=0;aspect=fixed;shape=mxgraph.aws4.resourceIcon;resIcon=mxgraph.aws4.s3;" parent="1" vertex="1">
          <mxGeometry x="791" y="1138" width="78" height="78" as="geometry" />
        </mxCell>
        <mxCell id="oPE7nMQUeZW3yc57D7jl-15" style="edgeStyle=orthogonalEdgeStyle;rounded=0;orthogonalLoop=1;jettySize=auto;html=1;exitX=0.5;exitY=1;exitDx=0;exitDy=0;entryX=0.5;entryY=0;entryDx=0;entryDy=0;" parent="1" source="oPE7nMQUeZW3yc57D7jl-16" target="oPE7nMQUeZW3yc57D7jl-18" edge="1">
          <mxGeometry relative="1" as="geometry" />
        </mxCell>
        <mxCell id="oPE7nMQUeZW3yc57D7jl-16" value="lb" style="rounded=1;whiteSpace=wrap;html=1;fillColor=#dae8fc;strokeColor=#6c8ebf;" parent="1" vertex="1">
          <mxGeometry x="770" y="838" width="120" height="30" as="geometry" />
        </mxCell>
        <mxCell id="oPE7nMQUeZW3yc57D7jl-25" style="edgeStyle=orthogonalEdgeStyle;rounded=0;orthogonalLoop=1;jettySize=auto;html=1;entryX=0.5;entryY=0;entryDx=0;entryDy=0;" parent="1" source="oPE7nMQUeZW3yc57D7jl-17" target="oPE7nMQUeZW3yc57D7jl-16" edge="1">
          <mxGeometry relative="1" as="geometry" />
        </mxCell>
        <mxCell id="oPE7nMQUeZW3yc57D7jl-17" value="lb" style="rounded=1;whiteSpace=wrap;html=1;fillColor=#dae8fc;strokeColor=#6c8ebf;" parent="1" vertex="1">
          <mxGeometry x="770" y="780" width="120" height="32" as="geometry" />
        </mxCell>
        <mxCell id="oPE7nMQUeZW3yc57D7jl-52" style="edgeStyle=orthogonalEdgeStyle;rounded=0;orthogonalLoop=1;jettySize=auto;html=1;entryX=0.5;entryY=0;entryDx=0;entryDy=0;" parent="1" edge="1">
          <mxGeometry relative="1" as="geometry">
            <mxPoint x="770" y="903" as="sourcePoint" />
            <mxPoint x="558.5" y="1058" as="targetPoint" />
          </mxGeometry>
        </mxCell>
        <mxCell id="oPE7nMQUeZW3yc57D7jl-18" value="web/app" style="rounded=1;whiteSpace=wrap;html=1;fillColor=#f8cecc;strokeColor=#b85450;" parent="1" vertex="1">
          <mxGeometry x="770" y="898" width="120" height="30" as="geometry" />
        </mxCell>
        <mxCell id="oPE7nMQUeZW3yc57D7jl-23" style="edgeStyle=orthogonalEdgeStyle;rounded=0;orthogonalLoop=1;jettySize=auto;html=1;entryX=0.5;entryY=0;entryDx=0;entryDy=0;" parent="1" source="oPE7nMQUeZW3yc57D7jl-19" target="oPE7nMQUeZW3yc57D7jl-21" edge="1">
          <mxGeometry relative="1" as="geometry" />
        </mxCell>
        <mxCell id="oPE7nMQUeZW3yc57D7jl-19" value="web/app" style="rounded=1;whiteSpace=wrap;html=1;fillColor=#f8cecc;strokeColor=#b85450;" parent="1" vertex="1">
          <mxGeometry x="770" y="948" width="120" height="30" as="geometry" />
        </mxCell>
        <mxCell id="oPE7nMQUeZW3yc57D7jl-22" style="edgeStyle=orthogonalEdgeStyle;rounded=0;orthogonalLoop=1;jettySize=auto;html=1;" parent="1" source="oPE7nMQUeZW3yc57D7jl-21" target="oPE7nMQUeZW3yc57D7jl-14" edge="1">
          <mxGeometry relative="1" as="geometry" />
        </mxCell>
        <mxCell id="oPE7nMQUeZW3yc57D7jl-21" value="db" style="rounded=1;whiteSpace=wrap;html=1;fillColor=#f8cecc;strokeColor=#b85450;" parent="1" vertex="1">
          <mxGeometry x="770" y="1028" width="120" height="30" as="geometry" />
        </mxCell>
        <mxCell id="oPE7nMQUeZW3yc57D7jl-27" style="edgeStyle=orthogonalEdgeStyle;rounded=0;orthogonalLoop=1;jettySize=auto;html=1;entryX=0.5;entryY=0;entryDx=0;entryDy=0;" parent="1" source="oPE7nMQUeZW3yc57D7jl-26" target="Dr1yl8WTk1HrlIP7WIu5-13" edge="1">
          <mxGeometry relative="1" as="geometry" />
        </mxCell>
        <mxCell id="oPE7nMQUeZW3yc57D7jl-31" style="edgeStyle=orthogonalEdgeStyle;rounded=0;orthogonalLoop=1;jettySize=auto;html=1;" parent="1" source="oPE7nMQUeZW3yc57D7jl-26" target="oPE7nMQUeZW3yc57D7jl-28" edge="1">
          <mxGeometry relative="1" as="geometry" />
        </mxCell>
        <mxCell id="oPE7nMQUeZW3yc57D7jl-26" value="" style="sketch=0;points=[[0,0,0],[0.25,0,0],[0.5,0,0],[0.75,0,0],[1,0,0],[0,1,0],[0.25,1,0],[0.5,1,0],[0.75,1,0],[1,1,0],[0,0.25,0],[0,0.5,0],[0,0.75,0],[1,0.25,0],[1,0.5,0],[1,0.75,0]];outlineConnect=0;fontColor=#232F3E;gradientColor=#945DF2;gradientDirection=north;fillColor=#5A30B5;strokeColor=#ffffff;dashed=0;verticalLabelPosition=bottom;verticalAlign=top;align=center;html=1;fontSize=12;fontStyle=0;aspect=fixed;shape=mxgraph.aws4.resourceIcon;resIcon=mxgraph.aws4.route_53;" parent="1" vertex="1">
          <mxGeometry x="-10" y="661" width="78" height="78" as="geometry" />
        </mxCell>
        <mxCell id="oPE7nMQUeZW3yc57D7jl-29" style="edgeStyle=orthogonalEdgeStyle;rounded=0;orthogonalLoop=1;jettySize=auto;html=1;entryX=0;entryY=0.5;entryDx=0;entryDy=0;" parent="1" source="oPE7nMQUeZW3yc57D7jl-28" target="oPE7nMQUeZW3yc57D7jl-16" edge="1">
          <mxGeometry relative="1" as="geometry">
            <Array as="points">
              <mxPoint x="666" y="700" />
              <mxPoint x="666" y="853" />
            </Array>
          </mxGeometry>
        </mxCell>
        <mxCell id="oPE7nMQUeZW3yc57D7jl-30" style="edgeStyle=orthogonalEdgeStyle;rounded=0;orthogonalLoop=1;jettySize=auto;html=1;entryX=0;entryY=0.5;entryDx=0;entryDy=0;" parent="1" source="oPE7nMQUeZW3yc57D7jl-28" target="oPE7nMQUeZW3yc57D7jl-17" edge="1">
          <mxGeometry relative="1" as="geometry" />
        </mxCell>
        <mxCell id="oPE7nMQUeZW3yc57D7jl-28" value="public rt" style="ellipse;whiteSpace=wrap;html=1;fillColor=#f8cecc;strokeColor=#b85450;" parent="1" vertex="1">
          <mxGeometry x="562" y="670" width="80" height="60" as="geometry" />
        </mxCell>
        <mxCell id="oPE7nMQUeZW3yc57D7jl-36" style="edgeStyle=orthogonalEdgeStyle;rounded=0;orthogonalLoop=1;jettySize=auto;html=1;entryX=0.5;entryY=0;entryDx=0;entryDy=0;" parent="1" source="Dr1yl8WTk1HrlIP7WIu5-1" target="Bct9v7tW5X9Kv2HivTZW-8" edge="1">
          <mxGeometry relative="1" as="geometry" />
        </mxCell>
        <mxCell id="Dr1yl8WTk1HrlIP7WIu5-1" value="Actor" style="shape=umlActor;verticalLabelPosition=bottom;verticalAlign=top;html=1;outlineConnect=0;" parent="1" vertex="1">
          <mxGeometry x="14" y="440" width="30" height="60" as="geometry" />
        </mxCell>
        <mxCell id="oPE7nMQUeZW3yc57D7jl-55" style="edgeStyle=orthogonalEdgeStyle;rounded=0;orthogonalLoop=1;jettySize=auto;html=1;entryX=0;entryY=0.5;entryDx=0;entryDy=0;" parent="1" source="oPE7nMQUeZW3yc57D7jl-46" target="oPE7nMQUeZW3yc57D7jl-18" edge="1">
          <mxGeometry relative="1" as="geometry" />
        </mxCell>
        <mxCell id="oPE7nMQUeZW3yc57D7jl-56" style="edgeStyle=orthogonalEdgeStyle;rounded=0;orthogonalLoop=1;jettySize=auto;html=1;entryX=0;entryY=0.5;entryDx=0;entryDy=0;" parent="1" source="oPE7nMQUeZW3yc57D7jl-46" target="oPE7nMQUeZW3yc57D7jl-19" edge="1">
          <mxGeometry relative="1" as="geometry" />
        </mxCell>
        <mxCell id="oPE7nMQUeZW3yc57D7jl-57" style="edgeStyle=orthogonalEdgeStyle;rounded=0;orthogonalLoop=1;jettySize=auto;html=1;entryX=0;entryY=0.5;entryDx=0;entryDy=0;" parent="1" source="oPE7nMQUeZW3yc57D7jl-46" target="oPE7nMQUeZW3yc57D7jl-21" edge="1">
          <mxGeometry relative="1" as="geometry" />
        </mxCell>
        <mxCell id="oPE7nMQUeZW3yc57D7jl-46" value="private rt" style="ellipse;whiteSpace=wrap;html=1;fillColor=#f8cecc;strokeColor=#b85450;" parent="1" vertex="1">
          <mxGeometry x="638.5" y="1068" width="70" height="60" as="geometry" />
        </mxCell>
        <mxCell id="oPE7nMQUeZW3yc57D7jl-47" style="edgeStyle=orthogonalEdgeStyle;rounded=0;orthogonalLoop=1;jettySize=auto;html=1;entryX=0;entryY=0.5;entryDx=0;entryDy=0;" parent="1" source="oPE7nMQUeZW3yc57D7jl-48" target="oPE7nMQUeZW3yc57D7jl-46" edge="1">
          <mxGeometry relative="1" as="geometry" />
        </mxCell>
        <mxCell id="oPE7nMQUeZW3yc57D7jl-48" value="nat" style="rounded=1;whiteSpace=wrap;html=1;fillColor=#60a917;fontColor=#ffffff;strokeColor=#2D7600;" parent="1" vertex="1">
          <mxGeometry x="498.5" y="1068" width="120" height="60" as="geometry" />
        </mxCell>
        <mxCell id="oPE7nMQUeZW3yc57D7jl-49" value="NIC&amp;nbsp; public ip" style="text;html=1;align=center;verticalAlign=middle;resizable=0;points=[];autosize=1;strokeColor=#006EAF;fillColor=#1ba1e2;fontColor=#ffffff;" parent="1" vertex="1">
          <mxGeometry x="448.5" y="1028" width="90" height="30" as="geometry" />
        </mxCell>
        <mxCell id="oPE7nMQUeZW3yc57D7jl-50" value="NIC private ip" style="text;html=1;align=center;verticalAlign=middle;resizable=0;points=[];autosize=1;strokeColor=#006EAF;fillColor=#1ba1e2;fontColor=#ffffff;" parent="1" vertex="1">
          <mxGeometry x="443.5" y="1138" width="100" height="30" as="geometry" />
        </mxCell>
        <mxCell id="oPE7nMQUeZW3yc57D7jl-58" value="singapore" style="whiteSpace=wrap;html=1;fillColor=#d80073;fontColor=#ffffff;strokeColor=#A50040;" parent="1" vertex="1">
          <mxGeometry x="1030" y="822" width="110" height="20" as="geometry" />
        </mxCell>
      </root>
    </mxGraphModel>
  </diagram>
</mxfile>
